<svg width="24" height="24" viewBox="0 0 24 24" fill="none" xmlns="http://www.w3.org/2000/svg">
  <path fill="black" fill-rule="evenodd" d="M5 3.5A3.5 3.5 0 0 0 1.5 7v8A3.5 3.5 0 0 0 5 18.5h5.5V20H7.75a1.25 1.25 0 0 0 0 2.5h8.5a1.25 1.25 0 0 0 0-2.5H13.5v-1.5H19a3.5 3.5 0 0 0 3.5-3.5V7A3.5 3.5 0 0 0 19 3.5H5Zm-1 3.5c0-.55.45-1 1-1h14c.55 0 1 .45 1 1v8c0 .55-.45 1-1 1H5c-.55 0-1-.45-1-1V7Zm6.2 1.8c0-.77.84-1.25 1.5-.86l3.65 2.15a1 1 0 0 1 0 1.72l-3.65 2.15a1 1 0 0 1-1.5-.86V8.8Z" clip-rule="evenodd"/>
</svg>
